<svg height="511pt" viewBox="-16 0 511 511.4129" width="511pt" xmlns="http://www.w3.org/2000/svg">
<path fill="#323236" d="m22.625 146.015625c-3.542969-2.449219-8.085938-2.941406-12.070312-1.308594-3.984376 1.632813-6.875 5.167969-7.683594 9.398438-3.78125 19.558593-6.828125 54.785156 15.179687 71.074219 7.621094 5.425781 16.8125 8.195312 26.164063 7.882812 18.019531-1.097656 35.59375-6.046875 51.539062-14.503906-.246094 3.410156-.519531 6.824218-.519531 10.238281.03125 19.796875 4.28125 39.363281 12.46875 57.386719 4.773437 9.59375 10.636719 18.605468 17.476563 26.855468 4.425781 5.511719 8.507812 11.296876 12.21875 17.3125 9.828124 18.414063 16.320312 38.425782 19.175781 59.101563 1.988281 10.746094 3.957031 21.734375 5.347656 32.835937-93.753906 14.816407-138.1875 47.351563-140.074219 48.769532-2.4375 1.828125-3.714844 4.820312-3.351562 7.847656.363281 3.027344 2.316406 5.628906 5.121094 6.828125 2.800781 1.195313 6.03125.804687 8.472656-1.023437.433594-.324219 42.996094-31.214844 131.488281-45.34375.175781 2.304687 1.28125 4.445312 3.0625 5.921874 7.074219 5.554688 14.609375 10.5 22.519531 14.777344-.105468 1.152344.027344 2.316406.394532 3.414063 8.730468 20.425781 24.636718 36.953125 44.714843 46.464843 3.796875 1.957032 8.308594 1.957032 12.109375 0 20.066406-9.507812 35.960938-26.027343 44.6875-46.449218.363282-1.058594.511719-2.183594.433594-3.300782 8.183594-3.921874 15.699219-9.105468 22.273438-15.359374l.324218.375c2.695313-2.691407 4.035156-6.453126 3.652344-10.238282 22.441406 1.839844 45.484375 4.6875 69.121094 8.53125l7.199218 36.085938c.8125 3.976562 4.308594 6.828125 8.363282 6.828125.574218.003906 1.148437-.054688 1.707031-.171875 2.21875-.449219 4.167969-1.765625 5.414063-3.652344 1.25-1.890625 1.695312-4.199219 1.242187-6.414062l-5.894531-29.519532c8.117187 1.503906 16.292968 3.121094 24.523437 4.855469l7.3125 36.609375c.8125 3.972656 4.308594 6.828125 8.363281 6.828125.574219 0 1.144532-.054687 1.707032-.171875 2.21875-.453125 4.164062-1.765625 5.414062-3.65625 1.246094-1.886719 1.695313-4.195312 1.242188-6.414062l-5.804688-29.175782c6.976563 1.59375 13.980469 3.269532 21.011719 5.027344.664063.167969 1.34375.253906 2.03125.257812 4.304687-.011718 7.929687-3.226562 8.449219-7.5.523437-4.273437-2.21875-8.265624-6.394532-9.3125-5.65625-1.417968-11.289062-2.738281-16.914062-4.054687l19.976562-14.976563c2.441407-1.828124 3.71875-4.820312 3.351563-7.84375-.363281-3.027343-2.316406-5.632812-5.117187-6.828124-2.804688-1.199219-6.035157-.808594-8.472657 1.019531l-31.652343 23.742187c-7.765626-1.640625-15.484376-3.1875-23.15625-4.644531l23.292968-23.304687c3.234375-3.347657 3.1875-8.667969-.101562-11.960938-3.292969-3.292969-8.613282-3.339844-11.964844-.105469l-31.742188 31.746094c-24.71875-4.097656-48.828124-7.082031-72.328124-8.960937.253906-3.738282.476562-7.484376.851562-11.203126 1.941406-19.007812 6.585938-37.636718 13.792969-55.332031 3.65625-8.761719 8.121093-17.167969 13.335937-25.105469 2.421875-3.675781 5.238282-7.148437 8.234375-10.835937 3.582031-4.261719 6.914063-8.726563 9.984375-13.371094 13.882813-21.859375 21.253906-47.226562 21.238282-73.121093 0-3.550782-.273438-7.050782-.535157-10.558594 15.765625 8.324218 33.132813 13.179687 50.933594 14.234375 9.417969.308593 18.675781-2.488281 26.351563-7.953125 22.492187-16.613282 19.429687-52.90625 15.597656-73.019532-.792969-4.230468-3.667969-7.773437-7.644532-9.421874-3.976562-1.644532-8.515624-1.167969-12.066406 1.265624-22.605468 15.359376-75.265625 9.300782-98.542968 4.828126-.851563-1.167969-1.785157-2.269532-2.652344-3.414063.136718-44.644531 37.246094-105.34375 49.492187-125.320313 2.816407-4.609374 2.4375-10.488281-.949219-14.699218-3.386718-4.207032-9.050781-5.839844-14.15625-4.074219-78.15625 26.453125-106.246093 84.90625-107.398437 87.375-.523437 1.15625-.777344 2.417969-.734375 3.683594-28.570312-8.804688-59.164062-8.542969-87.578125.753906.1875-1.425781.007813-2.875-.527344-4.207031-1.101562-2.511719-27.1875-61.117188-105.515625-87.628906-5.128906-1.789063-10.832031-.121094-14.183594 4.15625-3.398437 4.1875-3.769531 10.066406-.929687 14.648437 14.277344 23.339844 47.472656 82.289063 47.472656 125.570313.054688.621093.179688 1.238281.375 1.832031-.8125 1.109375-1.65625 2.203125-2.433593 3.328125-20.300782 4.457031-73.832032 11.734375-97.117188-4.230469zm5.589844 65.449219c-13.039063-9.648438-11.539063-34.574219-9.609375-48.023438 26.070312 13.457032 67.414062 9.667969 90.101562 6.144532-4.335937 9.089843-7.660156 18.628906-9.914062 28.449218-33.960938 17.800782-58.375 22.476563-70.578125 13.429688zm212.085937 282.386718c-10.742187-5.75-20.121093-13.742187-27.503906-23.433593 8.867187 3.007812 18.144531 4.605469 27.503906 4.738281 9.472657-.289062 18.847657-2.015625 27.800781-5.121094-7.417968 9.871094-16.90625 18-27.800781 23.816406zm221.664063-333.015624c1.96875 13.886718 3.582031 40.007812-9.984375 50.03125-12.296875 9.082031-36.59375 4.5-70.257813-13.140626-2.4375-10.515624-6.105468-20.703124-10.929687-30.359374 24.167969 3.394531 65.511719 6.5 91.171875-6.53125zm-162.742188-65.5c19.347656-33.914063 49.78125-60.132813 86.1875-74.238282-18.148437 30.617188-38.628906 70.117188-44.183594 106.109375-12.699218-12.335937-27.421874-22.402343-43.519531-29.761719.609375-.621093 1.121094-1.332031 1.515625-2.109374zm30.304688 44.253906c5.761718 5.519531 11 11.5625 15.648437 18.046875.460938 2.074219 1.679688 3.898437 3.414063 5.121093 12.84375 19.65625 19.691406 42.625 19.710937 66.109376.027344 22.660156-6.40625 44.863281-18.550781 64-2.710938 4.089843-5.65625 8.015624-8.824219 11.765624-3.113281 3.847657-6.332031 7.816407-9.214843 12.1875-5.800782 8.816407-10.761719 18.160157-14.824219 27.902344-7.839844 19.195313-12.898438 39.414063-15.027344 60.039063-.652344 5.917969-1.128906 11.851562-1.421875 17.800781 0 .792969 0 2.5625.109375 4.667969.058594 1.5625.195313 4.601562.179687 6.75-8.003906 5.972656-34.644531 24.132812-60.425781 24.132812-25.257812 0-51.4375-17.535156-59.980469-23.808593-.136718-1.886719-.367187-3.746094-.539062-5.613282 0-.121094 0-.230468 0-.359375-.019531-.074219-.046875-.144531-.074219-.214843-1.382812-14.285157-3.875-28.160157-6.367187-41.667969-3.226563-22.632813-10.414063-44.519531-21.238282-64.65625-4.074218-6.617188-8.546874-12.984375-13.398437-19.054688-6.035156-7.238281-11.230469-15.136719-15.488281-23.542969-21.679688-47.675781-10.46875-103.871093 27.84375-139.582031 23.597656-23.789062 55.71875-37.167969 89.226562-37.167969 33.507813 0 65.628906 13.378907 89.222656 37.167969zm-234.421875-118.554688c36.019531 13.816406 65.886719 40.097656 84.164062 74.070313.515625 1.144531 1.28125 2.160156 2.246094 2.96875-15.59375 7.324219-29.859375 17.183593-42.222656 29.175781-.5625.539062-1.042969 1.136719-1.597657 1.707031-5.144531-37.632812-26.316406-79.921875-42.589843-107.921875zm0 0"/>
<path fill="#323236" d="m136.5 213.472656c-3.078125.417969-5.691406 2.476563-6.8125 5.378906-1.121094 2.898438-.574219 6.179688 1.425781 8.5625 2 2.382813 5.136719 3.488282 8.1875 2.886719 1.855469-.222656 3.722657-.316406 5.589844-.285156-9.402344 9.867187-9.378906 25.386719.054687 35.222656 9.429688 9.839844 24.933594 10.519531 35.1875 1.539063.164063 2.09375.433594 4.046875.433594 6.308594 0 4.710937 3.820313 8.53125 8.535156 8.53125 4.710938 0 8.53125-3.820313 8.53125-8.53125 0-21.691407-6.226562-37.972657-18.515624-48.386719-12.117188-9.316407-27.476563-13.367188-42.617188-11.226563zm27 42.546875c-4.710938 0-8.53125-3.820312-8.53125-8.535156 0-4.710937 3.820312-8.53125 8.53125-8.53125 4.714844 0 8.535156 3.820313 8.535156 8.53125 0 4.714844-3.820312 8.535156-8.535156 8.535156zm0 0"/>
<path fill="#323236" d="m291.5 281.617188c4.714844 0 8.535156-3.820313 8.535156-8.53125 0-2.261719.273438-4.214844.425782-6.308594 10.261718 8.90625 25.707031 8.199218 35.113281-1.605469s9.46875-25.261719.148437-35.144531c1.875-.03125 3.75.0625 5.613282.28125 4.589843.640625 8.851562-2.496094 9.601562-7.070313.75-4.570312-2.285156-8.90625-6.835938-9.765625-15.136718-2.132812-30.496093 1.914063-42.617187 11.226563-12.285156 10.414062-18.515625 26.695312-18.515625 48.386719 0 4.710937 3.820312 8.53125 8.53125 8.53125zm25.601562-25.597657c-4.714843 0-8.535156-3.820312-8.535156-8.535156 0-4.710937 3.820313-8.53125 8.535156-8.53125 4.710938 0 8.53125 3.820313 8.53125 8.53125 0 4.714844-3.820312 8.535156-8.53125 8.535156zm0 0"/>
<path fill="#323236" d="m209.929688 423.085938c1.449218-.683594 3-1.113282 4.59375-1.273438.128906.707031.1875 1.421875.179687 2.140625 0 4.714844 3.820313 8.535156 8.53125 8.535156 4.714844 0 8.535156-3.820312 8.535156-8.535156.625-6.613281-2.414062-13.042969-7.929687-16.75-6.84375-3.253906-14.832032-3.035156-21.484375.589844-4.1875 2.109375-5.886719 7.207031-3.804688 11.40625 2.082031 4.203125 7.164063 5.9375 11.378907 3.886719zm0 0"/>
<path fill="#323236" d="m257.367188 432.488281c4.714843 0 8.535156-3.820312 8.535156-8.535156-.011719-.71875.050781-1.433594.179687-2.140625 1.589844.160156 3.140625.589844 4.589844 1.261719 4.191406 1.921875 9.152344.164062 11.199219-3.964844 2.046875-4.132813.445312-9.144531-3.621094-11.316406-6.65625-3.625-14.644531-3.84375-21.488281-.589844-5.511719 3.707031-8.554688 10.136719-7.925781 16.75 0 4.714844 3.820312 8.535156 8.53125 8.535156zm0 0"/></svg>